<mxfile host="65bd71144e">
    <diagram id="T8pmpTCMuDaPm9wjzUCa" name="Page-1">
        <mxGraphModel dx="1747" dy="1595" grid="1" gridSize="10" guides="1" tooltips="1" connect="1" arrows="1" fold="1" page="1" pageScale="1" pageWidth="827" pageHeight="1169" background="none" math="0" shadow="0">
            <root>
                <mxCell id="0"/>
                <mxCell id="1" parent="0"/>
                <mxCell id="2" value="NetworkService" style="rounded=0;whiteSpace=wrap;html=1;" parent="1" vertex="1">
                    <mxGeometry x="40" y="280" width="240" height="80" as="geometry"/>
                </mxCell>
                <mxCell id="8" value="" style="endArrow=classic;html=1;entryX=0;entryY=0.5;entryDx=0;entryDy=0;" parent="1" edge="1" target="68">
                    <mxGeometry width="50" height="50" relative="1" as="geometry">
                        <mxPoint x="280" y="319.5" as="sourcePoint"/>
                        <mxPoint x="750" y="319.5" as="targetPoint"/>
                    </mxGeometry>
                </mxCell>
                <mxCell id="9" value="send" style="edgeLabel;html=1;align=center;verticalAlign=middle;resizable=0;points=[];" parent="8" vertex="1" connectable="0">
                    <mxGeometry x="-0.0375" y="1" relative="1" as="geometry">
                        <mxPoint y="-9" as="offset"/>
                    </mxGeometry>
                </mxCell>
                <mxCell id="11" value="##################################################&lt;br&gt;外から受信したメッセージが SyncManager に届くまで&lt;br&gt;##################################################" style="shape=note;whiteSpace=wrap;html=1;backgroundOutline=1;darkOpacity=0.05;fontStyle=1" parent="1" vertex="1">
                    <mxGeometry x="10" y="10" width="410" height="100" as="geometry"/>
                </mxCell>
                <mxCell id="30" value="&lt;span style=&quot;font-weight: 400&quot;&gt;ネットワークから受信したメッセージの&lt;br&gt;&lt;/span&gt;&lt;span style=&quot;font-weight: normal&quot;&gt;&quot;Processor&quot; という意味&lt;/span&gt;" style="shape=note;whiteSpace=wrap;html=1;backgroundOutline=1;darkOpacity=0.05;fontStyle=1" parent="1" vertex="1">
                    <mxGeometry x="850" y="180" width="300" height="70" as="geometry"/>
                </mxCell>
                <mxCell id="68" value="Router" style="rounded=0;whiteSpace=wrap;html=1;" vertex="1" parent="1">
                    <mxGeometry x="440" y="280" width="240" height="80" as="geometry"/>
                </mxCell>
                <mxCell id="69" value="Processor" style="rounded=0;whiteSpace=wrap;html=1;" vertex="1" parent="1">
                    <mxGeometry x="880" y="280" width="240" height="80" as="geometry"/>
                </mxCell>
                <mxCell id="70" value="" style="endArrow=classic;html=1;entryX=0;entryY=0.5;entryDx=0;entryDy=0;" edge="1" parent="1">
                    <mxGeometry width="50" height="50" relative="1" as="geometry">
                        <mxPoint x="680" y="319.5" as="sourcePoint"/>
                        <mxPoint x="880" y="320" as="targetPoint"/>
                    </mxGeometry>
                </mxCell>
                <mxCell id="71" value="call" style="edgeLabel;html=1;align=center;verticalAlign=middle;resizable=0;points=[];" vertex="1" connectable="0" parent="70">
                    <mxGeometry x="-0.0375" y="1" relative="1" as="geometry">
                        <mxPoint y="-9" as="offset"/>
                    </mxGeometry>
                </mxCell>
                <mxCell id="72" value="BeaconProcessor" style="rounded=0;whiteSpace=wrap;html=1;" vertex="1" parent="1">
                    <mxGeometry x="880" y="480" width="240" height="80" as="geometry"/>
                </mxCell>
                <mxCell id="73" value="" style="endArrow=classic;html=1;entryX=0.5;entryY=0;entryDx=0;entryDy=0;exitX=0.5;exitY=1;exitDx=0;exitDy=0;" edge="1" parent="1" source="69" target="72">
                    <mxGeometry width="50" height="50" relative="1" as="geometry">
                        <mxPoint x="730" y="329.5" as="sourcePoint"/>
                        <mxPoint x="930" y="330" as="targetPoint"/>
                    </mxGeometry>
                </mxCell>
                <mxCell id="74" value="send" style="edgeLabel;html=1;align=center;verticalAlign=middle;resizable=0;points=[];" vertex="1" connectable="0" parent="73">
                    <mxGeometry x="-0.0375" y="1" relative="1" as="geometry">
                        <mxPoint x="19" y="2" as="offset"/>
                    </mxGeometry>
                </mxCell>
                <mxCell id="75" value="SyncManager" style="rounded=0;whiteSpace=wrap;html=1;" vertex="1" parent="1">
                    <mxGeometry x="1280" y="280" width="240" height="80" as="geometry"/>
                </mxCell>
                <mxCell id="76" value="" style="endArrow=classic;html=1;" edge="1" parent="1">
                    <mxGeometry width="50" height="50" relative="1" as="geometry">
                        <mxPoint x="1120" y="319.5" as="sourcePoint"/>
                        <mxPoint x="1280" y="320" as="targetPoint"/>
                    </mxGeometry>
                </mxCell>
                <mxCell id="77" value="send" style="edgeLabel;html=1;align=center;verticalAlign=middle;resizable=0;points=[];" vertex="1" connectable="0" parent="76">
                    <mxGeometry x="-0.0375" y="1" relative="1" as="geometry">
                        <mxPoint y="-9" as="offset"/>
                    </mxGeometry>
                </mxCell>
                <mxCell id="78" value="" style="endArrow=classic;html=1;exitX=1;exitY=0.5;exitDx=0;exitDy=0;" edge="1" parent="1" source="72">
                    <mxGeometry width="50" height="50" relative="1" as="geometry">
                        <mxPoint x="1130" y="329.5" as="sourcePoint"/>
                        <mxPoint x="1270" y="320" as="targetPoint"/>
                    </mxGeometry>
                </mxCell>
                <mxCell id="79" value="send" style="edgeLabel;html=1;align=center;verticalAlign=middle;resizable=0;points=[];" vertex="1" connectable="0" parent="78">
                    <mxGeometry x="-0.0375" y="1" relative="1" as="geometry">
                        <mxPoint x="-31" y="7" as="offset"/>
                    </mxGeometry>
                </mxCell>
                <mxCell id="80" value="&lt;span style=&quot;font-weight: 400&quot;&gt;manager が worker スレッドを生成して並列に処理する&lt;/span&gt;" style="shape=note;whiteSpace=wrap;html=1;backgroundOutline=1;darkOpacity=0.05;fontStyle=1" vertex="1" parent="1">
                    <mxGeometry x="815" y="580" width="370" height="70" as="geometry"/>
                </mxCell>
            </root>
        </mxGraphModel>
    </diagram>
</mxfile>